<svg xmlns="http://www.w3.org/2000/svg" xmlns:xlink="http://www.w3.org/1999/xlink" width="1280" height="368"><g transform="translate(8 8)"><path d="M652 340h120v-40H652z" stroke="#000" stroke-width="2" fill="#fff"/><use xlink:href="#a" transform="matrix(1,0,0,1,657,304.99999713897705) translate(9.725000000000001 18.6)"/><use xlink:href="#b" transform="matrix(1,0,0,1,657,304.99999713897705) translate(69.275 18.6)"/><use xlink:href="#c" transform="matrix(1,0,0,1,657,304.99999713897705) translate(80.275 18.6)"/><use xlink:href="#d" transform="matrix(1,0,0,1,657,304.99999713897705) translate(94.275 18.6)"/><path d="M812 340h120v-40H812z" stroke="#000" stroke-width="2" fill="#fff"/><use xlink:href="#a" transform="matrix(1,0,0,1,817,304.99999713897705) translate(9.725000000000001 18.6)"/><use xlink:href="#b" transform="matrix(1,0,0,1,817,304.99999713897705) translate(69.275 18.6)"/><use xlink:href="#e" transform="matrix(1,0,0,1,817,304.99999713897705) translate(80.275 18.6)"/><use xlink:href="#d" transform="matrix(1,0,0,1,817,304.99999713897705) translate(94.275 18.6)"/><path d="M658.67 204h160v40h-160z" stroke="#000" stroke-width="2" fill="#fff"/><use xlink:href="#f" transform="matrix(1,0,0,1,663.6666666666666,208.99999809265137) translate(6.049999999999997 18.6)"/><use xlink:href="#b" transform="matrix(1,0,0,1,663.6666666666666,208.99999809265137) translate(88 18.6)"/><use xlink:href="#g" transform="matrix(1,0,0,1,663.6666666666666,208.99999809265137) translate(99 18.6)"/><use xlink:href="#h" transform="matrix(1,0,0,1,663.6666666666666,208.99999809265137) translate(122.95 18.6)"/><use xlink:href="#d" transform="matrix(1,0,0,1,663.6666666666666,208.99999809265137) translate(137.95 18.6)"/><path d="M712 244v56" stroke="#000" stroke-width="2" fill="none"/><path d="M712 300l-4.64-14.27h9.28z"/><path d="M713.05 300h-2.1L706 284.73h12zm-4.3-13.27l3.25 10.03 3.26-10.03z"/><path d="M765.33 244v28H872v28" stroke="#000" stroke-width="2" fill="none"/><path d="M872 300l-4.64-14.27h9.28z"/><path d="M873.05 300h-2.1L866 284.73h12zm-4.3-13.27l3.25 10.03 3.26-10.03z"/><path d="M705.33 148h100v-40h-100z" stroke="#000" stroke-width="2" fill="#fff"/><use xlink:href="#i" transform="matrix(1,0,0,1,710.3333333333334,112.99999904632568) translate(12.074999999999996 18.6)"/><path d="M738.67 148v56" stroke="#000" stroke-width="2" fill="none"/><path d="M738.67 204l-4.64-14.27h9.27z"/><path d="M739.72 204h-2.1l-4.97-15.27h12.03zm-4.3-13.27l3.25 10.03 3.26-10.03z"/><path d="M1132 340h120v-40h-120z" stroke="#000" stroke-width="2" fill="#fff"/><use xlink:href="#a" transform="matrix(1,0,0,1,1137,304.99999713897705) translate(9.725000000000001 18.6)"/><use xlink:href="#b" transform="matrix(1,0,0,1,1137,304.99999713897705) translate(69.275 18.6)"/><use xlink:href="#c" transform="matrix(1,0,0,1,1137,304.99999713897705) translate(80.275 18.6)"/><use xlink:href="#d" transform="matrix(1,0,0,1,1137,304.99999713897705) translate(94.275 18.6)"/><path d="M972 340h120v-40H972z" stroke="#000" stroke-width="2" fill="#fff"/><use xlink:href="#a" transform="matrix(1,0,0,1,977,304.99999713897705) translate(9.725000000000001 18.6)"/><use xlink:href="#b" transform="matrix(1,0,0,1,977,304.99999713897705) translate(69.275 18.6)"/><use xlink:href="#e" transform="matrix(1,0,0,1,977,304.99999713897705) translate(80.275 18.6)"/><use xlink:href="#d" transform="matrix(1,0,0,1,977,304.99999713897705) translate(94.275 18.6)"/><path d="M978.67 204h160v40h-160z" stroke="#000" stroke-width="2" fill="#fff"/><use xlink:href="#f" transform="matrix(1,0,0,1,983.6666666666666,208.99999809265137) translate(6.049999999999997 18.6)"/><use xlink:href="#b" transform="matrix(1,0,0,1,983.6666666666666,208.99999809265137) translate(88 18.6)"/><use xlink:href="#g" transform="matrix(1,0,0,1,983.6666666666666,208.99999809265137) translate(99 18.6)"/><use xlink:href="#h" transform="matrix(1,0,0,1,983.6666666666666,208.99999809265137) translate(122.95 18.6)"/><use xlink:href="#d" transform="matrix(1,0,0,1,983.6666666666666,208.99999809265137) translate(137.95 18.6)"/><path d="M1085.33 244v28H1192v28" stroke="#000" stroke-width="2" fill="none"/><path d="M1192 300l-4.64-14.27h9.28z"/><path d="M1193.05 300h-2.1l-4.96-15.27h12zm-4.3-13.27l3.25 10.03 3.26-10.03z"/><path d="M1032 244v56" stroke="#000" stroke-width="2" fill="none"/><path d="M1032 300l-4.64-14.27h9.28z"/><path d="M1033.05 300h-2.1l-4.96-15.27h12zm-4.3-13.27l3.25 10.03 3.26-10.03z"/><path d="M772 148v28h286.67v28" stroke="#000" stroke-width="2" fill="none"/><path d="M1058.67 204l-4.64-14.27h9.27z"/><path d="M1059.72 204h-2.1l-4.97-15.27h12.03zm-4.3-13.27l3.25 10.03 3.26-10.03z"/><path d="M12 340h120v-40H12z" stroke="#000" stroke-width="2" fill="#fff"/><use xlink:href="#a" transform="matrix(1,0,0,1,17,304.99999713897705) translate(9.725000000000001 18.6)"/><use xlink:href="#b" transform="matrix(1,0,0,1,17,304.99999713897705) translate(69.275 18.6)"/><use xlink:href="#c" transform="matrix(1,0,0,1,17,304.99999713897705) translate(80.275 18.6)"/><use xlink:href="#d" transform="matrix(1,0,0,1,17,304.99999713897705) translate(94.275 18.6)"/><path d="M172 340h120v-40H172z" stroke="#000" stroke-width="2" fill="#fff"/><use xlink:href="#a" transform="matrix(1,0,0,1,177,304.99999713897705) translate(9.725000000000001 18.6)"/><use xlink:href="#b" transform="matrix(1,0,0,1,177,304.99999713897705) translate(69.275 18.6)"/><use xlink:href="#e" transform="matrix(1,0,0,1,177,304.99999713897705) translate(80.275 18.6)"/><use xlink:href="#d" transform="matrix(1,0,0,1,177,304.99999713897705) translate(94.275 18.6)"/><path d="M18.67 204h160v40h-160z" stroke="#000" stroke-width="2" fill="#fff"/><use xlink:href="#f" transform="matrix(1,0,0,1,23.66666666666663,208.99999809265137) translate(8.549999999999997 18.6)"/><use xlink:href="#b" transform="matrix(1,0,0,1,23.66666666666663,208.99999809265137) translate(90.5 18.6)"/><use xlink:href="#g" transform="matrix(1,0,0,1,23.66666666666663,208.99999809265137) translate(101.5 18.6)"/><use xlink:href="#j" transform="matrix(1,0,0,1,23.66666666666663,208.99999809265137) translate(125.45 18.6)"/><path d="M72 244v56" stroke="#000" stroke-width="2" fill="none"/><path d="M72 300l-4.64-14.27h9.28z"/><path d="M73.05 300h-2.1L66 284.73h12zm-4.3-13.27L72 296.76l3.26-10.03z"/><path d="M125.33 244v28H232v28" stroke="#000" stroke-width="2" fill="none"/><path d="M232 300l-4.64-14.27h9.28z"/><path d="M233.05 300h-2.1L226 284.73h12zm-4.3-13.27l3.25 10.03 3.26-10.03z"/><path d="M65.33 148h100v-40h-100z" stroke="#000" stroke-width="2" fill="#fff"/><g><use xlink:href="#i" transform="matrix(1,0,0,1,70.33333333333337,112.99999904632568) translate(12.074999999999996 18.6)"/></g><path d="M98.67 148v56" stroke="#000" stroke-width="2" fill="none"/><path d="M98.67 204l-4.64-14.27h9.27z"/><path d="M99.72 204h-2.1l-4.97-15.27h12.03zm-4.3-13.27l3.25 10.03 3.26-10.03z"/><path d="M492 340h120v-40H492z" stroke="#000" stroke-width="2" fill="#fff"/><g><use xlink:href="#a" transform="matrix(1,0,0,1,497,304.99999713897705) translate(9.725000000000001 18.6)"/><use xlink:href="#b" transform="matrix(1,0,0,1,497,304.99999713897705) translate(69.275 18.6)"/><use xlink:href="#c" transform="matrix(1,0,0,1,497,304.99999713897705) translate(80.275 18.6)"/><use xlink:href="#d" transform="matrix(1,0,0,1,497,304.99999713897705) translate(94.275 18.6)"/></g><path d="M332 340h120v-40H332z" stroke="#000" stroke-width="2" fill="#fff"/><g><use xlink:href="#a" transform="matrix(1,0,0,1,337,304.99999713897705) translate(9.725000000000001 18.6)"/><use xlink:href="#b" transform="matrix(1,0,0,1,337,304.99999713897705) translate(69.275 18.6)"/><use xlink:href="#e" transform="matrix(1,0,0,1,337,304.99999713897705) translate(80.275 18.6)"/><use xlink:href="#d" transform="matrix(1,0,0,1,337,304.99999713897705) translate(94.275 18.6)"/></g><path d="M338.67 204h160v40h-160z" stroke="#000" stroke-width="2" fill="#fff"/><g><use xlink:href="#f" transform="matrix(1,0,0,1,343.66666666666674,208.99999809265137) translate(6.049999999999997 18.6)"/><use xlink:href="#b" transform="matrix(1,0,0,1,343.66666666666674,208.99999809265137) translate(88 18.6)"/><use xlink:href="#g" transform="matrix(1,0,0,1,343.66666666666674,208.99999809265137) translate(99 18.6)"/><use xlink:href="#k" transform="matrix(1,0,0,1,343.66666666666674,208.99999809265137) translate(122.95 18.6)"/><use xlink:href="#d" transform="matrix(1,0,0,1,343.66666666666674,208.99999809265137) translate(137.95 18.6)"/></g><path d="M445.33 244v28H552v28" stroke="#000" stroke-width="2" fill="none"/><path d="M552 300l-4.64-14.27h9.28z"/><path d="M553.05 300h-2.1L546 284.73h12zm-4.3-13.27l3.25 10.03 3.26-10.03z"/><path d="M392 244v56" stroke="#000" stroke-width="2" fill="none"/><path d="M392 300l-4.64-14.27h9.28z"/><path d="M393.05 300h-2.1L386 284.73h12zm-4.3-13.27l3.25 10.03 3.26-10.03z"/><path d="M132 148v28h286.67v28" stroke="#000" stroke-width="2" fill="none"/><path d="M418.67 204l-4.64-14.27h9.27z"/><path d="M419.72 204h-2.1l-4.97-15.27h12.03zm-4.3-13.27l3.25 10.03 3.26-10.03z"/><path d="M82 52h100V12H82z" stroke="#000" stroke-width="2" fill="#fff"/><g><use xlink:href="#l" transform="matrix(1,0,0,1,87,17) translate(10.049999999999997 18.6)"/></g><path d="M148.67 52v28h606.66v28" stroke="#000" stroke-width="2" fill="none"/><path d="M755.33 108l-4.63-14.27h9.27z"/><path d="M756.38 108h-2.1l-4.96-15.27h12.03zm-4.3-13.27l3.25 10.03 3.26-10.03z"/><path d="M115.33 52v56" stroke="#000" stroke-width="2" fill="none"/><path d="M115.33 108l-4.63-14.27h9.27z"/><path d="M116.38 108h-2.1l-4.96-15.27h12.03zm-4.3-13.27l3.25 10.03 3.26-10.03z"/><defs><path d="M137 0h-34L2-248h35l83 218 83-218h36" id="m"/><path d="M141-36C126-15 110 5 73 4 37 3 15-17 15-53c-1-64 63-63 125-63 3-35-9-54-41-54-24 1-41 7-42 31l-33-3c5-37 33-52 76-52 45 0 72 20 72 64v82c-1 20 7 32 28 27v20c-31 9-61-2-59-35zM48-53c0 20 12 33 32 33 41-3 63-29 60-74-43 2-92-5-92 41" id="n"/><path d="M114-163C36-179 61-72 57 0H25l-1-190h30c1 12-1 29 2 39 6-27 23-49 58-41v29" id="o"/><path d="M233-177c-1 41-23 64-60 70L243 0h-38l-65-103H63V0H30v-248c88 3 205-21 203 71zM63-129c60-2 137 13 137-47 0-61-80-42-137-45v92" id="p"/><path d="M100-194c63 0 86 42 84 106H49c0 40 14 67 53 68 26 1 43-12 49-29l28 8c-11 28-37 45-77 45C44 4 14-33 15-96c1-61 26-98 85-98zm52 81c6-60-76-77-97-28-3 7-6 17-6 28h103" id="q"/><path d="M101-234c-31-9-42 10-38 44h38v23H63V0H32v-167H5v-23h27c-7-52 17-82 69-68v24" id="r"/><g id="a"><use transform="matrix(0.05,0,0,0.05,0,0)" xlink:href="#m"/><use transform="matrix(0.05,0,0,0.05,10.65,0)" xlink:href="#n"/><use transform="matrix(0.05,0,0,0.05,20.65,0)" xlink:href="#o"/><use transform="matrix(0.05,0,0,0.05,26.599999999999994,0)" xlink:href="#p"/><use transform="matrix(0.05,0,0,0.05,39.55,0)" xlink:href="#q"/><use transform="matrix(0.05,0,0,0.05,49.55,0)" xlink:href="#r"/></g><path d="M39-94c74 12-11 154 75 146v23c-44 4-70-10-70-52C44-23 55-84 6-82v-22c81 4-7-162 84-157h24v23c-82-15-2 131-75 144" id="s"/><use transform="matrix(0.05,0,0,0.05,0,0)" xlink:href="#s" id="b"/><path d="M141 0L90-78 38 0H4l68-98-65-92h35l48 74 47-74h35l-64 92 68 98h-35" id="t"/><use transform="matrix(0.05,0,0,0.05,0,0)" xlink:href="#t" id="c"/><path d="M76-40C78 24 84 88 6 75V52C86 64 9-79 80-94c-40-6-34-59-34-106 1-29-11-41-40-38v-23c44-4 70 10 70 52 0 47-12 108 38 105v22c-26 1-39 14-38 42" id="u"/><use transform="matrix(0.05,0,0,0.05,0,0)" xlink:href="#u" id="d"/><path d="M179-190L93 31C79 59 56 82 12 73V49c39 6 53-20 64-50L1-190h34L92-34l54-156h33" id="v"/><use transform="matrix(0.05,0,0,0.05,0,0)" xlink:href="#v" id="e"/><path d="M33 0v-248h34V0H33" id="w"/><path d="M117-194c89-4 53 116 60 194h-32v-121c0-31-8-49-39-48C34-167 62-67 57 0H25l-1-190h30c1 10-1 24 2 32 11-22 29-35 61-36" id="x"/><path d="M115-194c55 1 70 41 70 98S169 2 115 4C84 4 66-9 55-30l1 105H24l-1-265h31l2 30c10-21 28-34 59-34zm-8 174c40 0 45-34 45-75s-6-73-45-74c-42 0-51 32-51 76 0 43 10 73 51 73" id="y"/><path d="M84 4C-5 8 30-112 23-190h32v120c0 31 7 50 39 49 72-2 45-101 50-169h31l1 190h-30c-1-10 1-25-2-33-11 22-28 36-60 37" id="z"/><path d="M59-47c-2 24 18 29 38 22v24C64 9 27 4 27-40v-127H5v-23h24l9-43h21v43h35v23H59v120" id="A"/><path d="M30 0v-248h187v28H63v79h144v27H63v87h162V0H30" id="B"/><g id="f"><use transform="matrix(0.05,0,0,0.05,0,0)" xlink:href="#w"/><use transform="matrix(0.05,0,0,0.05,5,0)" xlink:href="#x"/><use transform="matrix(0.05,0,0,0.05,15,0)" xlink:href="#y"/><use transform="matrix(0.05,0,0,0.05,25,0)" xlink:href="#z"/><use transform="matrix(0.05,0,0,0.05,35,0)" xlink:href="#A"/><use transform="matrix(0.05,0,0,0.05,40,0)" xlink:href="#B"/><use transform="matrix(0.05,0,0,0.05,52,0)" xlink:href="#t"/><use transform="matrix(0.05,0,0,0.05,61,0)" xlink:href="#y"/><use transform="matrix(0.05,0,0,0.05,71,0)" xlink:href="#o"/></g><path d="M24-231v-30h32v30H24zM24 0v-190h32V0H24" id="C"/><path d="M85-194c31 0 48 13 60 33l-1-100h32l1 261h-30c-2-10 0-23-3-31C134-8 116 4 85 4 32 4 16-35 15-94c0-66 23-100 70-100zm9 24c-40 0-46 34-46 75 0 40 6 74 45 74 42 0 51-32 51-76 0-42-9-74-50-73" id="D"/><path d="M33-154v-36h34v36H33zM33 0v-36h34V0H33" id="E"/><g id="g"><use transform="matrix(0.05,0,0,0.05,0,0)" xlink:href="#C"/><use transform="matrix(0.05,0,0,0.05,3.95,0)" xlink:href="#D"/><use transform="matrix(0.05,0,0,0.05,13.949999999999998,0)" xlink:href="#E"/></g><path d="M101-251c68 0 85 55 85 127S166 4 100 4C33 4 14-52 14-124c0-73 17-127 87-127zm-1 229c47 0 54-49 54-102s-4-102-53-102c-51 0-55 48-55 102 0 53 5 102 54 102" id="F"/><use transform="matrix(0.05,0,0,0.05,0,0)" xlink:href="#F" id="h"/><path d="M240 0l2-218c-23 76-54 145-80 218h-23L58-218 59 0H30v-248h44l77 211c21-75 51-140 76-211h43V0h-30" id="G"/><path d="M24 0v-261h32V0H24" id="H"/><g id="i"><use transform="matrix(0.05,0,0,0.05,0,0)" xlink:href="#G"/><use transform="matrix(0.05,0,0,0.05,14.950000000000001,0)" xlink:href="#z"/><use transform="matrix(0.05,0,0,0.05,24.950000000000003,0)" xlink:href="#H"/><use transform="matrix(0.05,0,0,0.05,28.900000000000002,0)" xlink:href="#B"/><use transform="matrix(0.05,0,0,0.05,40.900000000000006,0)" xlink:href="#t"/><use transform="matrix(0.05,0,0,0.05,49.900000000000006,0)" xlink:href="#y"/><use transform="matrix(0.05,0,0,0.05,59.900000000000006,0)" xlink:href="#o"/></g><path d="M27 0v-27h64v-190l-56 39v-29l58-41h29v221h61V0H27" id="I"/><g id="j"><use transform="matrix(0.05,0,0,0.05,0,0)" xlink:href="#I"/><use transform="matrix(0.05,0,0,0.05,10,0)" xlink:href="#u"/></g><use transform="matrix(0.05,0,0,0.05,0,0)" xlink:href="#I" id="k"/><path d="M185-189c-5-48-123-54-124 2 14 75 158 14 163 119 3 78-121 87-175 55-17-10-28-26-33-46l33-7c5 56 141 63 141-1 0-78-155-14-162-118-5-82 145-84 179-34 5 7 8 16 11 25" id="J"/><path d="M145-31C134-9 116 4 85 4 32 4 16-35 15-94c0-59 17-99 70-100 32-1 48 14 60 33 0-11-1-24 2-32h30l-1 268h-32zM93-21c41 0 51-33 51-76s-8-73-50-73c-40 0-46 35-46 75s5 74 45 74" id="K"/><g id="l"><use transform="matrix(0.05,0,0,0.05,0,0)" xlink:href="#J"/><use transform="matrix(0.05,0,0,0.05,12,0)" xlink:href="#K"/><use transform="matrix(0.05,0,0,0.05,22,0)" xlink:href="#o"/><use transform="matrix(0.05,0,0,0.05,27.950000000000003,0)" xlink:href="#A"/><use transform="matrix(0.05,0,0,0.05,32.95,0)" xlink:href="#B"/><use transform="matrix(0.05,0,0,0.05,44.95,0)" xlink:href="#t"/><use transform="matrix(0.05,0,0,0.05,53.95,0)" xlink:href="#y"/><use transform="matrix(0.05,0,0,0.05,63.95,0)" xlink:href="#o"/></g></defs></g></svg>